<svg xmlns="http://www.w3.org/2000/svg" width="80" height="79" fill="none" viewBox="0 0 80 79"><path stroke="#eedb6d" stroke-width="3" d="m43.78 21.202.64 2.361 1.813-1.64 11.881-10.744-4.836 15.271-.739 2.332 2.413-.4 15.805-2.614L58.431 36l-1.882 1.563 2.246.968 14.709 6.345-15.9 1.943-2.43.297 1.367 2.03 8.944 13.29-14.427-6.961-2.203-1.064.051 2.445.34 16.017-8.375-13.657-1.278-2.086-1.278 2.086-8.375 13.657.34-16.017.051-2.445-2.203 1.064-14.428 6.96 8.945-13.29 1.366-2.029-2.429-.297-15.901-1.943 14.71-6.345 2.246-.968L20.755 36 8.428 25.768l15.805 2.615 2.414.4-.739-2.333L21.07 11.18l11.882 10.744 1.815 1.64.64-2.36L39.592 5.74z"/></svg>